<svg xmlns="http://www.w3.org/2000/svg" viewBox="0 0 512 512" role="img" aria-labelledby="title description">
  <title id="title">QR code placeholder</title>
  <desc id="description">Replace this placeholder with the QR code for your presentation.</desc>
  <rect width="512" height="512" rx="24" fill="#f7f3ea"/>
  <g fill="none" stroke="#171718" stroke-width="24">
    <rect x="48" y="48" width="128" height="128"/>
    <rect x="336" y="48" width="128" height="128"/>
    <rect x="48" y="336" width="128" height="128"/>
  </g>
  <g fill="#171718">
    <rect x="88" y="88" width="48" height="48"/>
    <rect x="376" y="88" width="48" height="48"/>
    <rect x="88" y="376" width="48" height="48"/>
    <rect x="232" y="64" width="40" height="40"/>
    <rect x="224" y="144" width="56" height="56"/>
    <rect x="320" y="224" width="48" height="48"/>
    <rect x="400" y="232" width="64" height="40"/>
    <rect x="224" y="304" width="48" height="48"/>
    <rect x="304" y="368" width="48" height="48"/>
    <rect x="400" y="336" width="64" height="64"/>
    <rect x="240" y="432" width="40" height="40"/>
  </g>
  <rect x="184" y="228" width="144" height="64" rx="12" fill="#d99161"/>
  <text x="256" y="269" fill="#171718" font-family="ui-monospace, monospace" font-size="24" font-weight="700" text-anchor="middle">REPLACE QR</text>
</svg>
